<svg version="1.1" xmlns="http://www.w3.org/2000/svg" xmlns:xlink="http://www.w3.org/1999/xlink" width="261.728" height="235.452" viewBox="0,0,256,230.28751"><g transform="translate(25.6,23.02875) scale(0.8,0.8)"><g fill="#000000" fill-rule="nonzero" stroke="none" stroke-width="1" stroke-linecap="butt" stroke-linejoin="miter" stroke-miterlimit="10" stroke-dasharray="" stroke-dashoffset="0" font-family="none" font-weight="none" font-size="none" text-anchor="none" style="mix-blend-mode: normal"><g transform="translate(-0.00052,-0.00469) scale(1.04332,1.04332)"><path d="M31.99,1.365c-10.703,6.355 -31.79,30.58 -31.99,36.933v10.516c0,13.33 12.46,25.046 23.773,25.046c13.584,0 24.902,-11.258 24.903,-24.62c0,13.362 10.93,24.62 24.515,24.62c13.586,0 24.165,-11.258 24.165,-24.62c0,13.362 11.622,24.62 25.207,24.62h0.246c13.586,0 25.208,-11.258 25.208,-24.62c0,13.362 10.58,24.62 24.164,24.62c13.585,0 24.515,-11.258 24.515,-24.62c0,13.362 11.32,24.62 24.903,24.62c11.313,0 23.773,-11.714 23.773,-25.046v-10.516c-0.2,-6.354 -21.287,-30.58 -31.988,-36.933c-33.266,-1.168 -56.328,-1.37 -90.699,-1.365c-34.37,0.003 -81.228,0.54 -90.697,1.365zM97.184,67.582c-1.29891,2.26427 -2.90779,4.33596 -4.78,6.155c-5.128,5.014 -12.157,8.122 -19.906,8.122c-7.45668,0.00699 -14.61873,-2.91054 -19.948,-8.126c-1.858,-1.82 -3.27,-3.766 -4.563,-6.032l-0.006,0.004c-1.292,2.27 -3.092,4.215 -4.954,6.037c-5.3313,5.21163 -12.49254,8.12667 -19.948,8.12c-0.934,0 -1.906,-0.258 -2.692,-0.528c-1.092,11.372 -1.553,22.24 -1.716,30.164l-0.002,0.045c-0.02,4.024 -0.04,7.333 -0.06,11.93c0.21,23.86 -2.363,77.334 10.52,90.473c19.964,4.655 56.7,6.775 93.555,6.788h0.006c36.854,-0.013 73.59,-2.133 93.554,-6.788c12.883,-13.14 10.31,-66.614 10.52,-90.474c-0.022,-4.596 -0.04,-7.905 -0.06,-11.93l-0.003,-0.045c-0.162,-7.926 -0.623,-18.793 -1.715,-30.165c-0.786,0.27 -1.757,0.528 -2.692,0.528c-7.45546,0.00667 -14.6167,-2.90837 -19.948,-8.12c-1.862,-1.822 -3.662,-3.766 -4.955,-6.037l-0.006,-0.004c-1.294,2.266 -2.705,4.213 -4.563,6.032c-5.32906,5.21504 -12.49077,8.13221 -19.947,8.125c-7.748,0 -14.778,-3.11 -19.906,-8.123c-1.87221,-1.81904 -3.48109,-3.89073 -4.78,-6.155c-1.28498,2.26177 -2.87899,4.33338 -4.736,6.155c-5.33056,5.21449 -12.49308,8.13119 -19.95,8.124c-0.27,0 -0.54,-0.012 -0.81,-0.02h-0.007c-0.27,0.008 -0.54,0.02 -0.813,0.02c-7.45678,0.00746 -14.61928,-2.90888 -19.95,-8.123c-1.85699,-1.82164 -3.451,-3.89324 -4.736,-6.155zM76.698,94.072l-0.002,0.01h0.015c8.113,0.017 15.32,0 24.25,9.746c7.028,-0.737 14.372,-1.105 21.722,-1.094h0.006c7.35,-0.01 14.694,0.357 21.723,1.094c8.93,-9.747 16.137,-9.73 24.25,-9.746h0.014l-0.002,-0.01c3.833,0 19.166,0 29.85,30.007l11.476,41.165c8.504,30.624 -2.723,31.373 -16.727,31.4c-20.768,-0.773 -32.267,-15.855 -32.267,-30.935c-11.496,1.884 -24.907,2.826 -38.318,2.827h-0.006c-13.412,0 -26.823,-0.943 -38.318,-2.827c0,15.08 -11.5,30.162 -32.267,30.935c-14.004,-0.027 -25.23,-0.775 -16.726,-31.4l11.479,-41.164c10.684,-30.007 26.017,-30.007 29.85,-30.007zM122.683,117.654v0.006c-0.02,0.02 -21.863,20.08 -25.79,27.215l14.304,-0.573v12.474c0,0.584 5.74,0.346 11.486,0.08h0.006c5.744,0.266 11.485,0.504 11.485,-0.08v-12.474l14.304,0.573c-3.928,-7.135 -25.79,-27.215 -25.79,-27.215v-0.006l-0.003,0.002z"></path></g></g></g></svg>